<svg width="37" height="37" viewBox="0 0 37 37" fill="none" xmlns="http://www.w3.org/2000/svg">
<path d="M15.801 3.08341C15.6147 3.08102 15.4307 3.12365 15.2645 3.20768C15.0983 3.2917 14.9548 3.41462 14.8463 3.56599C14.7378 3.71736 14.6675 3.8927 14.6413 4.0771C14.6151 4.26149 14.6338 4.44948 14.6959 4.62507H11.2844C9.86295 4.62507 8.5447 5.33133 7.75691 6.51301L5.9322 9.25007H5.78014C5.62692 9.24791 5.4748 9.27621 5.33262 9.33335C5.19044 9.39048 5.06103 9.47531 4.95192 9.58289C4.8428 9.69047 4.75616 9.81867 4.69702 9.96003C4.63788 10.1014 4.60742 10.2531 4.60742 10.4063C4.60742 10.5596 4.63788 10.7113 4.69702 10.8526C4.75616 10.994 4.8428 11.1222 4.95192 11.2298C5.06103 11.3373 5.19044 11.4222 5.33262 11.4793C5.4748 11.5364 5.62692 11.5647 5.78014 11.5626H31.2176C31.3709 11.5647 31.523 11.5364 31.6652 11.4793C31.8073 11.4222 31.9367 11.3373 32.0459 11.2298C32.155 11.1222 32.2416 10.994 32.3008 10.8526C32.3599 10.7113 32.3904 10.5596 32.3904 10.4063C32.3904 10.2531 32.3599 10.1014 32.3008 9.96003C32.2416 9.81867 32.155 9.69047 32.0459 9.58289C31.9367 9.47531 31.8073 9.39048 31.6652 9.33335C31.523 9.27621 31.3709 9.24791 31.2176 9.25007H31.0656L29.2409 6.51301C28.4531 5.33133 27.1341 4.62507 25.7134 4.62507H22.3019C22.3639 4.44948 22.3827 4.26149 22.3565 4.0771C22.3303 3.8927 22.26 3.71736 22.1515 3.56599C22.043 3.41462 21.8995 3.2917 21.7333 3.20768C21.5671 3.12365 21.383 3.08102 21.1968 3.08341H15.801ZM6.91531 13.8751L8.57441 29.358C8.80566 31.5179 10.6177 33.1459 12.7899 33.1459H24.2079C26.3793 33.1459 28.1913 31.5179 28.4234 29.358L30.0825 13.8751H6.91531Z" fill="#272626"/>
</svg>
